<svg width="525" height="105" viewBox="0 0 525 105" fill="none" xmlns="http://www.w3.org/2000/svg">
<path d="M3.1972 96.8945H35.6488C36.9276 101.211 40.9241 104.408 45.7199 104.408H58.9883C63.7841 104.408 67.7806 101.211 69.0595 96.8945H101.511C103.27 96.8945 104.548 95.4558 104.548 93.8572C104.548 92.0987 103.11 90.8198 101.511 90.8198H99.5927V80.1092C99.5927 78.1909 97.6744 76.7521 95.7561 77.0719C90.8004 78.1909 87.6032 78.8303 83.4469 78.8303C76.2532 78.6705 73.2158 77.3916 64.7433 76.5923C59.308 76.1127 54.832 78.6705 52.1143 82.1874C49.2369 78.6705 44.9206 76.1127 39.4854 76.5923C31.0128 77.2317 27.9755 78.6705 20.7818 78.8303C16.6254 78.8303 13.4282 78.3507 8.47258 77.0719C6.55426 76.5923 4.63594 78.031 4.63594 80.1092V90.8198H3.03734C1.27888 90.8198 0 92.2586 0 93.8572C0.15986 95.4558 1.5986 96.8945 3.1972 96.8945ZM10.8705 83.9458C13.9078 84.5853 17.105 85.0649 20.9417 84.905C28.6149 84.7451 31.8121 83.3064 39.965 82.667C42.8425 82.5071 47.7981 84.1057 49.2369 89.7008C50.0362 92.7381 54.3524 92.898 55.1517 89.7008C56.5904 84.1057 61.3862 82.3472 64.4236 82.667C72.5764 83.3064 75.7736 84.7451 83.4469 84.905C87.1237 84.905 90.3209 84.5853 93.5181 83.9458V90.8198H66.3419C64.5834 90.8198 63.3045 92.2586 63.3045 93.8572C63.3045 96.2551 61.3862 98.3332 58.8285 98.3332H45.5601C43.1622 98.3332 41.084 96.4149 41.084 93.8572C41.084 92.0987 39.6453 90.8198 38.0467 90.8198H10.8705V83.9458Z" fill="#3A6ADA"/>
<path d="M49.077 70.6774H55.3116C60.1074 70.6774 64.1039 66.8408 64.2637 62.2048V55.8104C65.063 50.3752 67.3011 45.2597 70.818 40.6237C73.8553 36.6272 75.4539 31.6716 75.4539 26.7159C75.4539 13.6074 64.7433 3.21652 51.9545 3.53624C39.4854 3.6961 29.2544 13.9271 29.0945 26.3962C29.0945 31.6716 30.6931 36.6272 33.7305 40.7836C37.0875 45.2597 39.3256 50.3752 40.2847 55.8104V62.2048C40.2847 66.8408 44.2812 70.6774 49.077 70.6774ZM58.189 62.045C58.189 63.3238 56.9102 64.4429 55.4714 64.4429H49.2369C47.6383 64.4429 46.5193 63.3238 46.5193 62.045V58.3682H58.3489L58.189 62.045ZM35.1692 26.2363C35.3291 17.1243 42.8425 9.61091 52.1144 9.45106C61.706 9.2912 69.5391 16.9645 69.5391 26.5561C69.5391 30.2328 68.4201 33.9096 66.0222 36.7871C62.5053 41.423 60.1074 46.6984 58.8285 52.2935H55.4714V34.5491C55.4714 32.7906 54.0327 31.5117 52.4341 31.5117C50.6756 31.5117 49.3967 32.9505 49.3967 34.5491V52.2935H46.0397C44.7608 46.6984 42.3629 41.5829 38.846 36.7871C36.2882 33.7498 35.1692 30.2328 35.1692 26.2363Z" fill="#3860BE"/>
<path d="M23.1796 23.5187C23.1796 21.7602 21.7409 20.4813 20.1423 20.4813H9.91124C8.15278 20.4813 6.8739 21.9201 6.8739 23.5187C6.8739 25.1173 8.31264 26.556 9.91124 26.556H20.1423C21.7409 26.556 23.1796 25.2771 23.1796 23.5187Z" fill="#3860BE"/>
<path d="M81.6884 41.4232L90.4807 46.5388C91.9194 47.3381 93.8377 46.8585 94.637 45.4197C95.4363 43.981 94.9568 42.0627 93.518 41.2634L84.7257 36.1479C83.287 35.3486 81.3687 35.8281 80.5694 37.2669C79.7701 38.7056 80.2497 40.6239 81.6884 41.4232Z" fill="#3860BE"/>
<path d="M14.2274 46.5388L23.0197 41.4232C24.4585 40.6239 24.9381 38.7056 24.1388 37.2669C23.3395 35.8281 21.4211 35.3486 19.9824 36.1479L11.1901 41.2634C9.75137 42.0627 9.27179 43.981 10.0711 45.4197C10.8704 47.0183 12.7887 47.4979 14.2274 46.5388Z" fill="#3860BE"/>
<path d="M84.7257 10.8897L93.518 5.7742C94.9568 4.9749 95.4363 3.05658 94.637 1.61784C93.8377 0.179099 91.9194 -0.30048 90.4807 0.498819L81.6884 5.61434C80.2497 6.41364 79.7701 8.33196 80.5694 9.7707C81.3687 11.2094 83.287 11.689 84.7257 10.8897Z" fill="#3860BE"/>
<path d="M23.0199 5.61453L14.2276 0.499012C12.7888 -0.460148 10.8705 0.0194318 10.0712 1.45817C9.11206 3.05677 9.59164 4.81523 11.0304 5.77439L19.8227 10.8899C21.4213 11.6892 23.1797 11.2096 24.1389 9.77089C24.9382 8.33215 24.4586 6.41383 23.0199 5.61453Z" fill="#3860BE"/>
<path d="M97.8343 23.5187C97.8343 21.7602 96.3955 20.4813 94.7969 20.4813H84.5659C82.8074 20.4813 81.5286 21.9201 81.5286 23.5187C81.5286 25.1173 82.9673 26.556 84.5659 26.556H94.7969C96.3955 26.556 97.8343 25.2771 97.8343 23.5187Z" fill="#3860BE"/>
<path d="M160.819 31.0321H140.517V89.5408H124.371V31.0321H104.069V17.9236H160.979V31.0321H160.819Z" fill="black"/>
<path d="M208.617 89.3812H192.951V81.548H192.631C188.794 87.6227 183.519 90.5002 176.965 90.5002C165.135 90.5002 159.22 83.3065 159.22 68.9191V38.3859H174.887V67.8001C174.887 74.9938 177.764 78.6706 183.519 78.6706C186.397 78.6706 188.635 77.7114 190.233 75.6332C191.992 73.7149 192.791 70.9973 192.791 67.6402V38.3859H208.457V89.3812H208.617Z" fill="black"/>
<path d="M252.738 88.7416C250.34 90.0204 246.824 90.6599 242.188 90.6599C230.997 90.6599 225.562 84.9049 225.562 73.395V49.8956H217.249V38.3857H225.562V27.3554L241.228 22.8793V38.3857H252.738V50.0555H241.228V70.6774C241.228 75.9528 243.307 78.6704 247.623 78.6704C249.221 78.6704 250.98 78.1908 252.738 77.2317V88.7416Z" fill="black"/>
<path d="M285.19 90.66C276.717 90.66 270.003 88.2621 265.048 83.4663C260.252 78.6705 257.694 72.2761 257.694 63.9633C257.694 55.4908 260.252 48.9365 265.207 44.1407C270.323 39.3449 277.037 36.947 285.67 36.947C294.142 36.947 300.856 39.3449 305.652 44.1407C310.448 48.9365 312.846 55.1711 312.846 63.0042C312.846 71.4768 310.288 78.1909 305.332 83.1465C300.696 88.2621 293.822 90.66 285.19 90.66ZM285.67 49.0964C281.993 49.0964 279.115 50.3753 277.037 52.933C274.959 55.4908 274 59.1676 274 63.8035C274 73.5549 277.996 78.5106 285.829 78.5106C293.343 78.5106 297.179 73.3951 297.179 63.3239C297.02 53.8922 293.183 49.0964 285.67 49.0964Z" fill="black"/>
<path d="M356.647 52.6135C354.729 51.6543 352.491 51.0149 349.933 51.0149C346.576 51.0149 343.859 52.2937 341.94 54.8515C340.022 57.4092 339.063 60.7663 339.063 65.0825V89.5411H323.237V38.3859H339.063V47.8177H339.223C341.78 40.9437 346.256 37.4268 352.651 37.4268C354.249 37.4268 355.688 37.5866 356.487 38.0662V52.6135H356.647Z" fill="black"/>
<path d="M408.122 89.381H365.44V17.9236H381.586V76.4323H408.122V89.381Z" fill="black"/>
<path d="M458.798 89.3811H443.931V82.0275H443.771C440.414 87.7825 435.298 90.6599 428.584 90.6599C423.629 90.6599 419.792 89.2212 416.915 86.5036C414.037 83.6261 412.598 79.9493 412.598 75.3134C412.598 65.4021 418.513 59.6471 430.183 58.2084L444.091 56.2901C444.091 50.695 441.053 47.9773 434.979 47.9773C428.904 47.9773 423.149 49.7358 417.554 53.4126V41.5829C419.792 40.4639 422.829 39.5048 426.506 38.5456C430.183 37.5864 433.86 37.2667 436.897 37.2667C451.444 37.2667 458.798 44.4604 458.798 59.0077V89.3811ZM443.931 68.5993V65.0824L434.659 66.2014C429.543 66.8408 426.986 69.2387 426.986 73.0754C426.986 74.8338 427.625 76.2725 428.904 77.5514C430.183 78.8303 431.781 79.3099 434.02 79.3099C437.057 79.3099 439.455 78.3507 441.213 76.2725C442.972 74.3542 443.931 71.7965 443.931 68.5993Z" fill="black"/>
<path d="M487.253 83.4663H487.093V89.3811H471.267V13.7673H487.093V46.059H487.253C491.09 40.1442 496.685 37.1069 503.878 37.1069C510.433 37.1069 515.548 39.3449 519.065 43.821C522.582 48.2971 524.34 54.5316 524.34 62.3647C524.34 70.8373 522.262 77.7113 518.106 82.8268C513.95 87.9423 508.354 90.5001 501.48 90.5001C495.246 90.66 490.45 88.2621 487.253 83.4663ZM486.773 61.8852V67.1605C486.773 70.5176 487.733 73.2352 489.651 75.3134C491.569 77.5514 493.967 78.5106 497.004 78.5106C500.521 78.5106 503.399 77.0719 505.317 74.3542C507.235 71.6366 508.354 67.6401 508.354 62.5246C508.354 58.3682 507.395 55.0112 505.637 52.6133C503.878 50.2154 501.161 49.0964 497.804 49.0964C494.606 49.0964 492.049 50.2154 489.971 52.6133C487.892 55.0112 486.773 58.0485 486.773 61.8852Z" fill="black"/>
</svg>
